<svg width="1462" height="248" viewBox="0 0 1462 248" fill="none" xmlns="http://www.w3.org/2000/svg">
<path d="M60.9658 156.426C84.8126 146.206 122.285 142.03 122.285 142.03C122.285 142.03 159.759 146.206 180.198 156.426C200.639 166.646 214.265 183.677 214.265 183.677L122.285 234.767L23.4924 183.677C23.4924 183.677 37.1191 166.646 60.9658 156.426Z" fill="#0063D3" fill-opacity="0.72"/>
<path d="M118.924 51.1066C153.006 51.1066 214.355 72.1798 214.355 72.1798C214.355 72.1798 195.609 131.888 180.272 159.986C164.958 188.042 119.063 233.827 118.924 233.966C118.84 233.883 72.8982 188.059 57.575 159.986C42.2378 131.888 23.4919 72.1798 23.4919 72.1798C23.4919 72.1798 84.8412 51.1066 118.924 51.1066Z" fill="#54C0FF" fill-opacity="0.61"/>
<g filter="url(#filter0_d_258_117)">
<path d="M105.269 14.3996C113.701 9.5312 124.09 9.5312 132.522 14.3996L205.577 56.5782C214.009 61.4459 219.204 70.4432 219.204 80.1799V164.537C219.204 174.273 214.009 183.27 205.577 188.138L132.522 230.317C124.09 235.185 113.701 235.185 105.269 230.317L32.214 188.138C23.7818 183.27 18.5874 174.273 18.5874 164.537V80.1799C18.5874 70.4432 23.7818 61.4459 32.214 56.5782L105.269 14.3996Z" stroke="white" stroke-width="10" shape-rendering="crispEdges"/>
</g>
<path d="M57.5688 91.6992C59.4768 92.9231 61.3921 94.1301 63.3146 95.3203C80.6171 106.032 98.5088 115.381 116.989 123.366C117.479 123.578 117.969 123.789 118.46 123.998L120.681 124.968L122.927 123.951C140.717 115.728 157.922 106.224 174.541 95.4414C176.438 94.2107 178.327 92.9633 180.208 91.6992C178.022 92.2964 175.843 92.9103 173.671 93.5409C154.646 99.0655 136.207 105.87 118.353 113.954L122.821 113.907C122.332 113.693 121.842 113.48 121.353 113.269C102.872 105.283 83.8023 98.6609 64.1436 93.4018C61.9593 92.8174 59.7677 92.2499 57.5688 91.6992Z" fill="#00F2FF"/>
<path d="M124.424 118.953C120.757 118.953 117.09 118.953 113.424 118.953C113.515 119.861 113.607 120.77 113.699 121.678C115.349 138.03 116.999 154.382 118.649 170.734C118.74 171.643 118.832 172.551 118.924 173.459C119.015 172.551 119.107 171.643 119.199 170.734C120.849 154.382 122.499 138.03 124.149 121.678C124.24 120.77 124.332 119.861 124.424 118.953Z" fill="#00F2FF"/>
<g filter="url(#filter1_d_258_117)">
<path d="M276.647 178.245V69.5668H297.451L343.717 146.262H332.694L378.183 69.5668H398.832L399.142 178.245H375.544L375.389 105.741H379.736L343.406 166.756H332.073L294.967 105.741H300.245V178.245H276.647ZM464.672 179.487C455.15 179.487 446.766 177.624 439.521 173.898C432.379 170.172 426.842 165.1 422.908 158.683C418.975 152.162 417.009 144.762 417.009 136.481C417.009 128.098 418.924 120.697 422.753 114.28C426.686 107.759 432.017 102.688 438.744 99.0651C445.472 95.339 453.08 93.4759 461.567 93.4759C469.744 93.4759 477.092 95.2355 483.613 98.7546C490.237 102.17 495.464 107.138 499.294 113.659C503.123 120.076 505.038 127.787 505.038 136.792C505.038 137.723 504.986 138.81 504.883 140.052C504.779 141.191 504.676 142.278 504.572 143.313H436.726V129.184H491.841L482.526 133.376C482.526 129.029 481.646 125.251 479.887 122.043C478.127 118.834 475.695 116.35 472.59 114.59C469.485 112.727 465.862 111.796 461.722 111.796C457.582 111.796 453.908 112.727 450.699 114.59C447.594 116.35 445.162 118.886 443.402 122.198C441.643 125.407 440.763 129.236 440.763 133.687V137.413C440.763 141.967 441.746 146.004 443.713 149.523C445.783 152.938 448.629 155.578 452.252 157.441C455.978 159.2 460.325 160.08 465.293 160.08C469.744 160.08 473.625 159.407 476.937 158.062C480.353 156.716 483.458 154.698 486.252 152.007L499.138 165.98C495.309 170.327 490.496 173.691 484.7 176.071C478.904 178.348 472.228 179.487 464.672 179.487ZM555.319 179.487C545.486 179.487 537.827 177.003 532.341 172.035C526.855 166.963 524.112 159.459 524.112 149.523V76.2427H548.332V149.212C548.332 152.731 549.264 155.474 551.127 157.441C552.99 159.304 555.526 160.235 558.734 160.235C562.564 160.235 565.824 159.2 568.515 157.13L575.036 174.208C572.552 175.968 569.55 177.313 566.031 178.245C562.616 179.073 559.045 179.487 555.319 179.487ZM511.226 115.212V96.581H569.136V115.212H511.226ZM639.865 178.245V161.943L638.313 158.372V129.184C638.313 124.009 636.709 119.973 633.5 117.075C630.395 114.176 625.582 112.727 619.061 112.727C614.611 112.727 610.212 113.452 605.865 114.901C601.621 116.247 597.999 118.11 594.997 120.49L586.303 103.567C590.857 100.359 596.342 97.8748 602.76 96.1152C609.177 94.3557 615.697 93.4759 622.322 93.4759C635.053 93.4759 644.937 96.4775 651.975 102.481C659.013 108.484 662.533 117.851 662.533 130.582V178.245H639.865ZM614.404 179.487C607.883 179.487 602.294 178.4 597.636 176.226C592.979 173.949 589.408 170.896 586.924 167.066C584.44 163.237 583.198 158.941 583.198 154.18C583.198 149.212 584.388 144.865 586.768 141.139C589.253 137.413 593.134 134.515 598.413 132.445C603.691 130.271 610.574 129.184 619.061 129.184H641.263V143.313H621.701C616.008 143.313 612.075 144.244 609.901 146.107C607.831 147.97 606.796 150.299 606.796 153.094C606.796 156.199 607.987 158.683 610.367 160.546C612.851 162.305 616.215 163.185 620.459 163.185C624.495 163.185 628.118 162.254 631.326 160.391C634.535 158.424 636.864 155.578 638.313 151.852L642.039 163.03C640.279 168.412 637.071 172.5 632.413 175.295C627.756 178.089 621.752 179.487 614.404 179.487ZM686.16 178.245V69.5668H733.202C742.932 69.5668 751.315 71.171 758.354 74.3796C765.392 77.4847 770.826 81.9871 774.655 87.8868C778.485 93.7864 780.4 100.825 780.4 109.001C780.4 117.075 778.485 124.061 774.655 129.961C770.826 135.757 765.392 140.207 758.354 143.313C751.315 146.418 742.932 147.97 733.202 147.97H700.133L711.311 136.947V178.245H686.16ZM755.248 178.245L728.079 138.81H754.938L782.418 178.245H755.248ZM711.311 139.742L700.133 127.942H731.805C739.568 127.942 745.364 126.286 749.194 122.974C753.023 119.559 754.938 114.901 754.938 109.001C754.938 102.998 753.023 98.3406 749.194 95.0285C745.364 91.7164 739.568 90.0603 731.805 90.0603H700.133L711.311 78.1057V139.742ZM838.364 179.487C829.463 179.487 821.545 177.624 814.61 173.898C807.779 170.172 802.345 165.1 798.308 158.683C794.375 152.162 792.409 144.762 792.409 136.481C792.409 128.098 794.375 120.697 798.308 114.28C802.345 107.759 807.779 102.688 814.61 99.0651C821.545 95.339 829.463 93.4759 838.364 93.4759C847.162 93.4759 855.028 95.339 861.963 99.0651C868.897 102.688 874.331 107.708 878.264 114.125C882.198 120.542 884.164 127.994 884.164 136.481C884.164 144.762 882.198 152.162 878.264 158.683C874.331 165.1 868.897 170.172 861.963 173.898C855.028 177.624 847.162 179.487 838.364 179.487ZM838.364 159.614C842.401 159.614 846.023 158.683 849.232 156.82C852.44 154.957 854.976 152.317 856.839 148.902C858.702 145.383 859.634 141.242 859.634 136.481C859.634 131.617 858.702 127.477 856.839 124.061C854.976 120.645 852.44 118.006 849.232 116.143C846.023 114.28 842.401 113.348 838.364 113.348C834.327 113.348 830.705 114.28 827.496 116.143C824.288 118.006 821.7 120.645 819.734 124.061C817.871 127.477 816.939 131.617 816.939 136.481C816.939 141.242 817.871 145.383 819.734 148.902C821.7 152.317 824.288 154.957 827.496 156.82C830.705 158.683 834.327 159.614 838.364 159.614ZM940.098 179.487C931.197 179.487 923.279 177.624 916.344 173.898C909.513 170.172 904.079 165.1 900.042 158.683C896.109 152.162 894.143 144.762 894.143 136.481C894.143 128.098 896.109 120.697 900.042 114.28C904.079 107.759 909.513 102.688 916.344 99.0651C923.279 95.339 931.197 93.4759 940.098 93.4759C948.896 93.4759 956.762 95.339 963.697 99.0651C970.631 102.688 976.065 107.708 979.998 114.125C983.932 120.542 985.898 127.994 985.898 136.481C985.898 144.762 983.932 152.162 979.998 158.683C976.065 165.1 970.631 170.172 963.697 173.898C956.762 177.624 948.896 179.487 940.098 179.487ZM940.098 159.614C944.135 159.614 947.757 158.683 950.966 156.82C954.174 154.957 956.71 152.317 958.573 148.902C960.436 145.383 961.368 141.242 961.368 136.481C961.368 131.617 960.436 127.477 958.573 124.061C956.71 120.645 954.174 118.006 950.966 116.143C947.757 114.28 944.135 113.348 940.098 113.348C936.061 113.348 932.439 114.28 929.23 116.143C926.022 118.006 923.434 120.645 921.468 124.061C919.605 127.477 918.673 131.617 918.673 136.481C918.673 141.242 919.605 145.383 921.468 148.902C923.434 152.317 926.022 154.957 929.23 156.82C932.439 158.683 936.061 159.614 940.098 159.614ZM1109.06 93.4759C1115.68 93.4759 1121.53 94.8215 1126.6 97.5125C1131.78 100.1 1135.81 104.137 1138.71 109.622C1141.71 115.005 1143.21 121.939 1143.21 130.426V178.245H1118.99V134.153C1118.99 127.425 1117.6 122.457 1114.8 119.248C1112.01 116.04 1108.07 114.435 1103 114.435C1099.48 114.435 1096.33 115.263 1093.53 116.919C1090.74 118.472 1088.56 120.852 1087.01 124.061C1085.46 127.27 1084.68 131.358 1084.68 136.326V178.245H1060.46V134.153C1060.46 127.425 1059.07 122.457 1056.27 119.248C1053.58 116.04 1049.7 114.435 1044.63 114.435C1041.11 114.435 1037.95 115.263 1035.16 116.919C1032.36 118.472 1030.19 120.852 1028.64 124.061C1027.08 127.27 1026.31 131.358 1026.31 136.326V178.245H1002.09V94.7179H1025.22V117.54L1020.87 110.864C1023.77 105.172 1027.86 100.876 1033.14 97.9783C1038.52 94.9767 1044.63 93.4759 1051.46 93.4759C1059.12 93.4759 1065.79 95.4425 1071.49 99.3756C1077.28 103.205 1081.11 109.105 1082.97 117.075L1074.44 114.746C1077.23 108.225 1081.68 103.05 1087.79 99.2203C1094 95.3907 1101.09 93.4759 1109.06 93.4759Z" fill="white"/>
</g>
<g filter="url(#filter2_d_258_117)">
<path d="M1227.06 185.078C1218.09 185.078 1209.17 183.91 1200.32 181.573C1191.46 179.114 1183.96 175.671 1177.82 171.244L1189.44 148.373C1194.35 151.939 1200.07 154.767 1206.59 156.857C1213.11 158.948 1219.68 159.993 1226.33 159.993C1233.83 159.993 1239.73 158.517 1244.03 155.566C1248.34 152.615 1250.49 148.557 1250.49 143.393C1250.49 138.474 1248.58 134.601 1244.77 131.773C1240.96 128.944 1234.81 127.53 1226.33 127.53H1212.68V107.794L1248.64 67.0317L1251.96 77.7296H1184.27V53.7516H1274.65V73.1185L1238.87 113.881L1223.74 105.212H1232.41C1248.27 105.212 1260.26 108.778 1268.38 115.91C1276.49 123.042 1280.55 132.203 1280.55 143.393C1280.55 150.648 1278.65 157.472 1274.83 163.866C1271.02 170.138 1265.18 175.241 1257.31 179.175C1249.44 183.11 1239.36 185.078 1227.06 185.078ZM1302.46 182.864V53.7516H1361.12C1375.14 53.7516 1387.49 56.4568 1398.19 61.8672C1408.89 67.1547 1417.25 74.5941 1423.28 84.1853C1429.3 93.7765 1432.31 105.151 1432.31 118.308C1432.31 131.342 1429.3 142.716 1423.28 152.431C1417.25 162.022 1408.89 169.523 1398.19 174.933C1387.49 180.221 1375.14 182.864 1361.12 182.864H1302.46ZM1332.34 158.333H1359.64C1368.25 158.333 1375.69 156.734 1381.96 153.537C1388.35 150.217 1393.27 145.545 1396.72 139.519C1400.28 133.494 1402.07 126.424 1402.07 118.308C1402.07 110.069 1400.28 102.999 1396.72 97.0966C1393.27 91.0713 1388.35 86.4601 1381.96 83.2631C1375.69 79.943 1368.25 78.283 1359.64 78.283H1332.34V158.333Z" fill="url(#paint0_linear_258_117)"/>
</g>
<defs>
<filter id="filter0_d_258_117" x="8.95782" y="3.69549e-05" width="225.039" height="247.642" filterUnits="userSpaceOnUse" color-interpolation-filters="sRGB">
<feFlood flood-opacity="0" result="BackgroundImageFix"/>
<feColorMatrix in="SourceAlpha" type="matrix" values="0 0 0 0 0 0 0 0 0 0 0 0 0 0 0 0 0 0 127 0" result="hardAlpha"/>
<feOffset dx="2.58155" dy="1.46288"/>
<feGaussianBlur stdDeviation="3.60557"/>
<feComposite in2="hardAlpha" operator="out"/>
<feColorMatrix type="matrix" values="0 0 0 0 0 0 0 0 0 0 0 0 0 0 0 0 0 0 0.42 0"/>
<feBlend mode="normal" in2="BackgroundImageFix" result="effect1_dropShadow_258_117"/>
<feBlend mode="normal" in="SourceGraphic" in2="effect1_dropShadow_258_117" result="shape"/>
</filter>
<filter id="filter1_d_258_117" x="257.208" y="50.3858" width="908.026" height="151.38" filterUnits="userSpaceOnUse" color-interpolation-filters="sRGB">
<feFlood flood-opacity="0" result="BackgroundImageFix"/>
<feColorMatrix in="SourceAlpha" type="matrix" values="0 0 0 0 0 0 0 0 0 0 0 0 0 0 0 0 0 0 127 0" result="hardAlpha"/>
<feOffset dx="1.29078" dy="1.54893"/>
<feGaussianBlur stdDeviation="10.3649"/>
<feComposite in2="hardAlpha" operator="out"/>
<feColorMatrix type="matrix" values="0 0 0 0 0 0 0 0 0 0 0 0 0 0 0 0 0 0 0.65 0"/>
<feBlend mode="normal" in2="BackgroundImageFix" result="effect1_dropShadow_258_117"/>
<feBlend mode="normal" in="SourceGraphic" in2="effect1_dropShadow_258_117" result="shape"/>
</filter>
<filter id="filter2_d_258_117" x="1151.72" y="27.999" width="310.164" height="186.991" filterUnits="userSpaceOnUse" color-interpolation-filters="sRGB">
<feFlood flood-opacity="0" result="BackgroundImageFix"/>
<feColorMatrix in="SourceAlpha" type="matrix" values="0 0 0 0 0 0 0 0 0 0 0 0 0 0 0 0 0 0 127 0" result="hardAlpha"/>
<feOffset dx="1.73302" dy="2.07962"/>
<feGaussianBlur stdDeviation="13.9161"/>
<feComposite in2="hardAlpha" operator="out"/>
<feColorMatrix type="matrix" values="0 0 0 0 0 0 0 0 0 0 0 0 0 0 0 0 0 0 0.65 0"/>
<feBlend mode="normal" in2="BackgroundImageFix" result="effect1_dropShadow_258_117"/>
<feBlend mode="normal" in="SourceGraphic" in2="effect1_dropShadow_258_117" result="shape"/>
</filter>
<linearGradient id="paint0_linear_258_117" x1="1440" y1="116.864" x2="1178" y2="116.864" gradientUnits="userSpaceOnUse">
<stop stop-color="#0059F3"/>
<stop offset="1" stop-color="#12DBFF"/>
</linearGradient>
</defs>
</svg>
