<svg width="1440" height="238" viewBox="0 0 1440 238" fill="none" xmlns="http://www.w3.org/2000/svg">
<path d="M60.9658 152.562C84.8126 142.342 122.285 138.165 122.285 138.165C122.285 138.165 159.759 142.342 180.198 152.562C200.639 162.782 214.265 179.813 214.265 179.813L122.285 230.903L23.4924 179.813C23.4924 179.813 37.1191 162.782 60.9658 152.562Z" fill="#0063D3" fill-opacity="0.72"/>
<path d="M118.924 47.2422C153.006 47.2422 214.355 68.3154 214.355 68.3154C214.355 68.3154 195.609 128.024 180.272 156.122C164.958 184.178 119.063 229.963 118.924 230.102C118.84 230.018 72.8982 184.195 57.575 156.122C42.2378 128.024 23.4919 68.3154 23.4919 68.3154C23.4919 68.3154 84.8412 47.2422 118.924 47.2422Z" fill="#54C0FF" fill-opacity="0.61"/>
<path d="M105.269 10.5352C113.701 5.66686 124.09 5.66686 132.522 10.5352L205.577 52.7138C214.009 57.5816 219.204 66.5788 219.204 76.3155V160.672C219.204 170.409 214.009 179.406 205.577 184.274L132.522 226.453C124.09 231.321 113.701 231.321 105.269 226.453L32.214 184.274C23.7818 179.406 18.5874 170.409 18.5874 160.672V76.3155C18.5874 66.5788 23.7818 57.5816 32.214 52.7138L105.269 10.5352Z" stroke="white" stroke-width="10"/>
<path d="M57.5688 87.8348C59.4768 89.0587 61.3921 90.2657 63.3146 91.4559C80.6171 102.168 98.5088 111.517 116.989 119.502C117.479 119.714 117.969 119.924 118.46 120.134L120.681 121.104L122.927 120.087C140.717 111.863 157.922 102.36 174.541 91.577C176.438 90.3463 178.327 89.0989 180.208 87.8348C180.208 87.8348 180.208 87.8348 180.208 87.8348C178.022 88.4321 175.843 89.0459 173.671 89.6765C154.646 95.2011 136.207 102.005 118.353 110.09L122.821 110.042C122.332 109.829 121.842 109.616 121.353 109.404C102.872 101.419 83.8023 94.7965 64.1436 89.5374C61.9593 88.953 59.7677 88.3855 57.5688 87.8348Z" fill="#00F2FF"/>
<path d="M124.424 115.089C120.757 115.089 117.09 115.089 113.424 115.089C113.515 115.997 113.607 116.905 113.699 117.814C115.349 134.166 116.999 150.518 118.649 166.87C118.74 167.778 118.832 168.687 118.924 169.595C118.924 169.595 118.924 169.595 118.924 169.595C119.015 168.687 119.107 167.778 119.199 166.87C120.849 150.518 122.499 134.166 124.149 117.814C124.24 116.905 124.332 115.997 124.424 115.089Z" fill="#00F2FF"/>
<path d="M276.647 174.38V65.7024H297.451L343.717 142.398H332.694L378.183 65.7024H398.832L399.142 174.38H375.544L375.389 101.877H379.736L343.406 162.892H332.073L294.967 101.877H300.245V174.38H276.647ZM464.672 175.622C455.15 175.622 446.766 173.759 439.521 170.033C432.379 166.307 426.842 161.236 422.908 154.818C418.975 148.298 417.009 140.897 417.009 132.617C417.009 124.233 418.924 116.833 422.753 110.416C426.686 103.895 432.017 98.8233 438.744 95.2007C445.472 91.4746 453.08 89.6116 461.567 89.6116C469.744 89.6116 477.092 91.3711 483.613 94.8902C490.237 98.3058 495.464 103.274 499.294 109.795C503.123 116.212 505.038 123.923 505.038 132.928C505.038 133.859 504.986 134.946 504.883 136.188C504.779 137.326 504.676 138.413 504.572 139.448H436.726V125.32H491.841L482.526 129.512C482.526 125.165 481.646 121.387 479.887 118.178C478.127 114.97 475.695 112.486 472.59 110.726C469.485 108.863 465.862 107.932 461.722 107.932C457.582 107.932 453.908 108.863 450.699 110.726C447.594 112.486 445.162 115.022 443.402 118.334C441.643 121.542 440.763 125.372 440.763 129.822V133.549C440.763 138.103 441.746 142.139 443.713 145.658C445.783 149.074 448.629 151.713 452.252 153.576C455.978 155.336 460.325 156.216 465.293 156.216C469.744 156.216 473.625 155.543 476.937 154.197C480.353 152.852 483.458 150.834 486.252 148.142L499.138 162.115C495.309 166.462 490.496 169.826 484.7 172.207C478.904 174.484 472.228 175.622 464.672 175.622ZM555.319 175.622C545.486 175.622 537.827 173.138 532.341 168.17C526.855 163.099 524.112 155.595 524.112 145.658V72.3784H548.332V145.348C548.332 148.867 549.264 151.61 551.127 153.576C552.99 155.439 555.526 156.371 558.734 156.371C562.564 156.371 565.824 155.336 568.515 153.266L575.036 170.344C572.552 172.103 569.55 173.449 566.031 174.38C562.616 175.208 559.045 175.622 555.319 175.622ZM511.226 111.347V92.7167H569.136V111.347H511.226ZM639.865 174.38V158.079L638.313 154.508V125.32C638.313 120.145 636.709 116.108 633.5 113.21C630.395 110.312 625.582 108.863 619.061 108.863C614.611 108.863 610.212 109.588 605.865 111.037C601.621 112.382 597.999 114.245 594.997 116.626L586.303 99.7031C590.857 96.4945 596.342 94.0105 602.76 92.2509C609.177 90.4914 615.697 89.6116 622.322 89.6116C635.053 89.6116 644.937 92.6132 651.975 98.6163C659.013 104.62 662.533 113.987 662.533 126.717V174.38H639.865ZM614.404 175.622C607.883 175.622 602.294 174.536 597.636 172.362C592.979 170.085 589.408 167.032 586.924 163.202C584.44 159.373 583.198 155.077 583.198 150.316C583.198 145.348 584.388 141.001 586.768 137.275C589.253 133.549 593.134 130.65 598.413 128.58C603.691 126.407 610.574 125.32 619.061 125.32H641.263V139.448H621.701C616.008 139.448 612.075 140.38 609.901 142.243C607.831 144.106 606.796 146.435 606.796 149.229C606.796 152.334 607.987 154.818 610.367 156.681C612.851 158.441 616.215 159.321 620.459 159.321C624.495 159.321 628.118 158.389 631.326 156.526C634.535 154.56 636.864 151.713 638.313 147.987L642.039 159.166C640.279 164.548 637.071 168.636 632.413 171.431C627.756 174.225 621.752 175.622 614.404 175.622ZM686.16 174.38V65.7024H733.202C742.932 65.7024 751.315 67.3067 758.354 70.5153C765.392 73.6204 770.826 78.1228 774.655 84.0224C778.485 89.9221 780.4 96.9603 780.4 105.137C780.4 113.21 778.485 120.197 774.655 126.096C770.826 131.893 765.392 136.343 758.354 139.448C751.315 142.553 742.932 144.106 733.202 144.106H700.133L711.311 133.083V174.38H686.16ZM755.248 174.38L728.079 134.946H754.938L782.418 174.38H755.248ZM711.311 135.877L700.133 124.078H731.805C739.568 124.078 745.364 122.422 749.194 119.11C753.023 115.694 754.938 111.037 754.938 105.137C754.938 99.1339 753.023 94.4762 749.194 91.1641C745.364 87.852 739.568 86.196 731.805 86.196H700.133L711.311 74.2414V135.877ZM838.364 175.622C829.463 175.622 821.545 173.759 814.61 170.033C807.779 166.307 802.345 161.236 798.308 154.818C794.375 148.298 792.409 140.897 792.409 132.617C792.409 124.233 794.375 116.833 798.308 110.416C802.345 103.895 807.779 98.8233 814.61 95.2007C821.545 91.4746 829.463 89.6116 838.364 89.6116C847.162 89.6116 855.028 91.4746 861.963 95.2007C868.897 98.8233 874.331 103.843 878.264 110.26C882.198 116.678 884.164 124.13 884.164 132.617C884.164 140.897 882.198 148.298 878.264 154.818C874.331 161.236 868.897 166.307 861.963 170.033C855.028 173.759 847.162 175.622 838.364 175.622ZM838.364 155.75C842.401 155.75 846.023 154.818 849.232 152.955C852.44 151.092 854.976 148.453 856.839 145.037C858.702 141.518 859.634 137.378 859.634 132.617C859.634 127.752 858.702 123.612 856.839 120.197C854.976 116.781 852.44 114.142 849.232 112.279C846.023 110.416 842.401 109.484 838.364 109.484C834.327 109.484 830.705 110.416 827.496 112.279C824.288 114.142 821.7 116.781 819.734 120.197C817.871 123.612 816.939 127.752 816.939 132.617C816.939 137.378 817.871 141.518 819.734 145.037C821.7 148.453 824.288 151.092 827.496 152.955C830.705 154.818 834.327 155.75 838.364 155.75ZM940.098 175.622C931.197 175.622 923.279 173.759 916.344 170.033C909.513 166.307 904.079 161.236 900.042 154.818C896.109 148.298 894.143 140.897 894.143 132.617C894.143 124.233 896.109 116.833 900.042 110.416C904.079 103.895 909.513 98.8233 916.344 95.2007C923.279 91.4746 931.197 89.6116 940.098 89.6116C948.896 89.6116 956.762 91.4746 963.697 95.2007C970.631 98.8233 976.065 103.843 979.998 110.26C983.932 116.678 985.898 124.13 985.898 132.617C985.898 140.897 983.932 148.298 979.998 154.818C976.065 161.236 970.631 166.307 963.697 170.033C956.762 173.759 948.896 175.622 940.098 175.622ZM940.098 155.75C944.135 155.75 947.757 154.818 950.966 152.955C954.174 151.092 956.71 148.453 958.573 145.037C960.436 141.518 961.368 137.378 961.368 132.617C961.368 127.752 960.436 123.612 958.573 120.197C956.71 116.781 954.174 114.142 950.966 112.279C947.757 110.416 944.135 109.484 940.098 109.484C936.061 109.484 932.439 110.416 929.23 112.279C926.022 114.142 923.434 116.781 921.468 120.197C919.605 123.612 918.673 127.752 918.673 132.617C918.673 137.378 919.605 141.518 921.468 145.037C923.434 148.453 926.022 151.092 929.23 152.955C932.439 154.818 936.061 155.75 940.098 155.75ZM1109.06 89.6116C1115.68 89.6116 1121.53 90.9571 1126.6 93.6482C1131.78 96.2358 1135.81 100.272 1138.71 105.758C1141.71 111.14 1143.21 118.075 1143.21 126.562V174.38H1118.99V130.288C1118.99 123.561 1117.6 118.592 1114.8 115.384C1112.01 112.175 1108.07 110.571 1103 110.571C1099.48 110.571 1096.33 111.399 1093.53 113.055C1090.74 114.608 1088.56 116.988 1087.01 120.197C1085.46 123.405 1084.68 127.494 1084.68 132.462V174.38H1060.46V130.288C1060.46 123.561 1059.07 118.592 1056.27 115.384C1053.58 112.175 1049.7 110.571 1044.63 110.571C1041.11 110.571 1037.95 111.399 1035.16 113.055C1032.36 114.608 1030.19 116.988 1028.64 120.197C1027.08 123.405 1026.31 127.494 1026.31 132.462V174.38H1002.09V90.8536H1025.22V113.676L1020.87 107C1023.77 101.307 1027.86 97.012 1033.14 94.114C1038.52 91.1124 1044.63 89.6116 1051.46 89.6116C1059.12 89.6116 1065.79 91.5782 1071.49 95.5113C1077.28 99.3409 1081.11 105.241 1082.97 113.21L1074.44 110.881C1077.23 104.361 1081.68 99.1856 1087.79 95.356C1094 91.5264 1101.09 89.6116 1109.06 89.6116Z" fill="white"/>
<path d="M1227.06 181.213C1218.09 181.213 1209.17 180.045 1200.32 177.709C1191.46 175.25 1183.96 171.807 1177.82 167.38L1189.44 144.508C1194.35 148.074 1200.07 150.903 1206.59 152.993C1213.11 155.083 1219.68 156.129 1226.33 156.129C1233.83 156.129 1239.73 154.653 1244.03 151.702C1248.34 148.751 1250.49 144.693 1250.49 139.528C1250.49 134.61 1248.58 130.736 1244.77 127.908C1240.96 125.08 1234.81 123.666 1226.33 123.666H1212.68V103.93L1248.64 63.1674L1251.96 73.8653H1184.27V49.8872H1274.65V69.2541L1238.87 110.017L1223.74 101.348H1232.41C1248.27 101.348 1260.26 104.914 1268.38 112.046C1276.49 119.178 1280.55 128.339 1280.55 139.528C1280.55 146.783 1278.65 153.608 1274.83 160.002C1271.02 166.273 1265.18 171.376 1257.31 175.311C1249.44 179.246 1239.36 181.213 1227.06 181.213ZM1302.46 179V49.8872H1361.12C1375.14 49.8872 1387.49 52.5924 1398.19 58.0028C1408.89 63.2903 1417.25 70.7297 1423.28 80.3209C1429.3 89.9122 1432.31 101.286 1432.31 114.444C1432.31 127.478 1429.3 138.852 1423.28 148.566C1417.25 158.158 1408.89 165.658 1398.19 171.069C1387.49 176.356 1375.14 179 1361.12 179H1302.46ZM1332.34 154.469H1359.64C1368.25 154.469 1375.69 152.87 1381.96 149.673C1388.35 146.353 1393.27 141.68 1396.72 135.655C1400.28 129.63 1402.07 122.559 1402.07 114.444C1402.07 106.205 1400.28 99.1345 1396.72 93.2322C1393.27 87.2069 1388.35 82.5958 1381.96 79.3987C1375.69 76.0786 1368.25 74.4186 1359.64 74.4186H1332.34V154.469Z" fill="url(#paint0_linear_264_97)"/>
<defs>
<linearGradient id="paint0_linear_264_97" x1="1440" y1="113" x2="1178" y2="113" gradientUnits="userSpaceOnUse">
<stop stop-color="#0059F3"/>
<stop offset="1" stop-color="#12DBFF"/>
</linearGradient>
</defs>
</svg>
