999
dxflib 3.26.4.0
  0
SECTION
  2
HEADER
  9
$ACADVER
  1
AC1015
  9
$HANDSEED
  5
FFFF
  0
ENDSEC
  0
SECTION
  2
TABLES
  0
TABLE
  2
VPORT
  5
8
100
AcDbSymbolTable
 70
1
  0
VPORT
  5
30
100
AcDbSymbolTableRecord
100
AcDbViewportTableRecord
  2
*Active
 70
0
 10
0.0
 20
0.0
 11
1.0
 21
1.0
 12
286.30555555555549
 22
148.5
 13
0.0
 23
0.0
 14
10.0
 24
10.0
 15
10.0
 25
10.0
 16
0.0
 26
0.0
 36
1.0
 17
0.0
 27
0.0
 37
0.0
 40
297.0
 41
1.92798353909465
 42
50.0
 43
0.0
 44
0.0
 50
0.0
 51
0.0
 71
0
 72
100
 73
1
 74
3
 75
1
 76
1
 77
0
 78
0
281
0
 65
1
110
0.0
120
0.0
130
0.0
111
1.0
121
0.0
131
0.0
112
0.0
122
1.0
132
0.0
 79
0
146
0.0
  0
ENDTAB
  0
TABLE
  2
LTYPE
  5
5
100
AcDbSymbolTable
 70
1
  0
LTYPE
  5
16
100
AcDbSymbolTableRecord
100
AcDbLinetypeTableRecord
  2
CONTINUOUS
 70
0
  3
Solid line
 72
65
 73
0
 40
0.0
  0
LTYPE
  5
15
100
AcDbSymbolTableRecord
100
AcDbLinetypeTableRecord
  2
BYLAYER
 70
0
  3

 72
65
 73
0
 40
0.0
  0
LTYPE
  5
14
100
AcDbSymbolTableRecord
100
AcDbLinetypeTableRecord
  2
BYBLOCK
 70
0
  3

 72
65
 73
0
 40
0.0
  0
ENDTAB
  0
TABLE
  2
LAYER
  5
2
100
AcDbSymbolTable
 70
1
  0
LAYER
  5
10
100
AcDbSymbolTableRecord
100
AcDbLayerTableRecord
  2
0
 70
0
 62
1
420
16,711,680
  6
CONTINUOUS
370
15
390
F
  0
ENDTAB
  0
TABLE
  2
STYLE
  5
3
100
AcDbSymbolTable
 70
1
  0
STYLE
  5
31
100
AcDbSymbolTableRecord
100
AcDbTextStyleTableRecord
  2
Standard
 70
0
 40
0.0
 41
1.0
 50
0.0
 71
0
 42
2.5
  3

  4

1,001
ACAD
1,000
YouYuan
1,071
0
  0
ENDTAB
  0
TABLE
  2
VIEW
  5
6
100
AcDbSymbolTable
 70
0
  0
ENDTAB
  0
TABLE
  2
UCS
  5
7
100
AcDbSymbolTable
 70
0
  0
ENDTAB
  0
TABLE
  2
APPID
  5
9
100
AcDbSymbolTable
 70
1
  0
APPID
  5
12
100
AcDbSymbolTableRecord
100
AcDbRegAppTableRecord
  2
ACAD
 70
0
  0
ENDTAB
  0
TABLE
  2
DIMSTYLE
  5
A
100
AcDbSymbolTable
 70
1
100
AcDbDimStyleTable
 71
0
  0
DIMSTYLE
105
27
100
AcDbSymbolTableRecord
100
AcDbDimStyleTableRecord
  2
Standard
 41
2.5
 42
0.625
 43
3.75
 44
0.625
 70
0
 73
0
 74
0
 77
1
 78
8
140
2.5
141
2.5
143
0.03937007874016
147
0.625
171
3
172
1
271
2
272
2
274
3
278
44
283
0
284
8
340
31
  0
ENDTAB
  0
TABLE
  2
BLOCK_RECORD
  5
1
100
AcDbSymbolTable
 70
1
  0
BLOCK_RECORD
  5
1F
100
AcDbSymbolTableRecord
100
AcDbBlockTableRecord
  2
*Model_Space
340
22
  0
BLOCK_RECORD
  5
1B
100
AcDbSymbolTableRecord
100
AcDbBlockTableRecord
  2
*Paper_Space
340
1E
  0
BLOCK_RECORD
  5
23
100
AcDbSymbolTableRecord
100
AcDbBlockTableRecord
  2
*Paper_Space0
340
26
  0
ENDTAB
  0
ENDSEC
  0
SECTION
  2
BLOCKS
  0
BLOCK
  5
20
100
AcDbEntity
  8
0
100
AcDbBlockBegin
  2
*Model_Space
 70
0
 10
0.0
 20
0.0
 30
0.0
  3
*Model_Space
  1

  0
ENDBLK
  5
21
100
AcDbEntity
  8
0
100
AcDbBlockEnd
  0
BLOCK
  5
1C
100
AcDbEntity
 67
1
  8
0
100
AcDbBlockBegin
  2
*Paper_Space
 70
0
 10
0.0
 20
0.0
 30
0.0
  3
*Paper_Space
  1

  0
ENDBLK
  5
1D
100
AcDbEntity
 67
1
  8
0
100
AcDbBlockEnd
  0
BLOCK
  5
24
100
AcDbEntity
  8
0
100
AcDbBlockBegin
  2
*Paper_Space0
 70
0
 10
0.0
 20
0.0
 30
0.0
  3
*Paper_Space0
  1

  0
ENDBLK
  5
25
100
AcDbEntity
  8
0
100
AcDbBlockEnd
  0
ENDSEC
  0
SECTION
  2
ENTITIES
  0
MTEXT
  5
32
100
AcDbEntity
  8
0
 62
256
370
-1
 48
1.0
  6
BYLAYER
100
AcDbMText
 10
90.6752700805664063
 20
-41.6746940612792969
 30
0.0000000000000000
 40
5.2000000000000002
 41
0.0000000000000000
 71
5
 72
1
  1
\u+0042\u+0061\u+0074\u+0068\u+0072\u+006f\u+006f\u+006d
  7
YouYuan
 50
0.0000000000000000
 73
1
 44
0.2500000000000000
  0
LINE
  5
33
100
AcDbEntity
  8
0
 62
256
370
-1
 48
1.0
  6
BYLAYER
100
AcDbLine
 10
123.5835571289062500
 20
39.1061363220214844
 30
0.0000000000000000
 11
123.5741348266601563
 21
-96.6201629638671875
 31
0.0000000000000000
  0
LINE
  5
34
100
AcDbEntity
  8
0
 62
256
370
-1
 48
1.0
  6
BYLAYER
100
AcDbLine
 10
123.5741348266601563
 20
-96.6201629638671875
 30
0.0000000000000000
 11
74.2201309204101563
 21
-96.6167373657226563
 31
0.0000000000000000
  0
LINE
  5
35
100
AcDbEntity
  8
0
 62
256
370
-1
 48
1.0
  6
BYLAYER
100
AcDbLine
 10
74.2201309204101563
 20
-96.6167373657226563
 30
0.0000000000000000
 11
74.2209625244140625
 21
-84.6515655517578125
 31
0.0000000000000000
  0
LINE
  5
36
100
AcDbEntity
  8
0
 62
256
370
-1
 48
1.0
  6
BYLAYER
100
AcDbLine
 10
74.2233428955078125
 20
-50.3753700256347656
 30
0.0000000000000000
 11
74.2295532226562500
 21
39.1095581054687500
 31
0.0000000000000000
  0
LINE
  5
37
100
AcDbEntity
  8
0
 62
256
370
-1
 48
1.0
  6
BYLAYER
100
AcDbLine
 10
74.2295532226562500
 20
39.1095581054687500
 30
0.0000000000000000
 11
123.5835571289062500
 21
39.1061363220214844
 31
0.0000000000000000
  0
MTEXT
  5
38
100
AcDbEntity
  8
0
 62
256
370
-1
 48
1.0
  6
BYLAYER
100
AcDbMText
 10
-114.0082168579101563
 20
-128.9807891845703125
 30
0.0000000000000000
 40
5.2000000000000002
 41
0.0000000000000000
 71
5
 72
1
  1
\u+0042\u+0065\u+0064\u+0072\u+006f\u+006f\u+006d\u+002d\u+0031
  7
YouYuan
 50
0.0000000000000000
 73
1
 44
0.2500000000000000
  0
LINE
  5
39
100
AcDbEntity
  8
0
 62
256
370
-1
 48
1.0
  6
BYLAYER
100
AcDbLine
 10
-57.1408424377441406
 20
-95.7389984130859375
 30
0.0000000000000000
 11
-57.2122764587402344
 21
-191.6756286621093750
 31
0.0000000000000000
  0
LINE
  5
3A
100
AcDbEntity
  8
0
 62
256
370
-1
 48
1.0
  6
BYLAYER
100
AcDbLine
 10
-57.2122764587402344
 20
-191.6756286621093750
 30
0.0000000000000000
 11
-195.8593902587890625
 21
-199.4038238525390625
 31
0.0000000000000000
  0
LINE
  5
3B
100
AcDbEntity
  8
0
 62
256
370
-1
 48
1.0
  6
BYLAYER
100
AcDbLine
 10
-195.8593902587890625
 20
-199.4038238525390625
 30
0.0000000000000000
 11
-195.7821197509765625
 21
-95.6357803344726563
 31
0.0000000000000000
  0
LINE
  5
3C
100
AcDbEntity
  8
0
 62
256
370
-1
 48
1.0
  6
BYLAYER
100
AcDbLine
 10
-195.7821197509765625
 20
-95.6357803344726563
 30
0.0000000000000000
 11
-108.9228591918945313
 21
-95.7004470825195313
 31
0.0000000000000000
  0
LINE
  5
3D
100
AcDbEntity
  8
0
 62
256
370
-1
 48
1.0
  6
BYLAYER
100
AcDbLine
 10
-69.1318359375000000
 20
-95.7300720214843750
 30
0.0000000000000000
 11
-57.1408424377441406
 21
-95.7389984130859375
 31
0.0000000000000000
  0
MTEXT
  5
3E
100
AcDbEntity
  8
0
 62
256
370
-1
 48
1.0
  6
BYLAYER
100
AcDbMText
 10
4.0393204689025879
 20
52.4452018737792969
 30
0.0000000000000000
 40
5.2000000000000002
 41
0.0000000000000000
 71
5
 72
1
  1
\u+0042\u+0065\u+0064\u+0072\u+006f\u+006f\u+006d\u+002d\u+0032
  7
YouYuan
 50
0.0000000000000000
 73
1
 44
0.2500000000000000
  0
LINE
  5
3F
100
AcDbEntity
  8
0
 62
256
370
-1
 48
1.0
  6
BYLAYER
100
AcDbLine
 10
74.9545288085937500
 20
136.8112030029296875
 30
0.0000000000000000
 11
74.9727172851562500
 21
-3.7835049629211426
 31
0.0000000000000000
  0
LINE
  5
40
100
AcDbEntity
  8
0
 62
256
370
-1
 48
1.0
  6
BYLAYER
100
AcDbLine
 10
74.9727172851562500
 20
-3.7835049629211426
 30
0.0000000000000000
 11
-15.5967407226562500
 21
-3.7952206134796143
 31
0.0000000000000000
  0
LINE
  5
41
100
AcDbEntity
  8
0
 62
256
370
-1
 48
1.0
  6
BYLAYER
100
AcDbLine
 10
-57.0578575134277344
 20
-3.8005838394165039
 30
0.0000000000000000
 11
-57.0760421752929688
 21
136.7941284179687500
 31
0.0000000000000000
  0
LINE
  5
42
100
AcDbEntity
  8
0
 62
256
370
-1
 48
1.0
  6
BYLAYER
100
AcDbLine
 10
-57.0760421752929688
 20
136.7941284179687500
 30
0.0000000000000000
 11
74.9545288085937500
 21
136.8112030029296875
 31
0.0000000000000000
  0
MTEXT
  5
43
100
AcDbEntity
  8
0
 62
256
370
-1
 48
1.0
  6
BYLAYER
100
AcDbMText
 10
16.5618457794189453
 20
-57.7709541320800781
 30
0.0000000000000000
 40
5.2000000000000002
 41
0.0000000000000000
 71
5
 72
1
  1
\u+0044\u+0069\u+006e\u+0069\u+006e\u+0067\u+002d\u+0052\u+006f\u+006f\u+006d
  7
YouYuan
 50
0.0000000000000000
 73
1
 44
0.2500000000000000
  0
LINE
  5
44
100
AcDbEntity
  8
0
 62
256
370
-1
 48
1.0
  6
BYLAYER
100
AcDbLine
 10
73.3792724609375000
 20
-4.1003985404968262
 30
0.0000000000000000
 11
73.3805236816406250
 21
-47.5543365478515625
 31
0.0000000000000000
  0
LINE
  5
45
100
AcDbEntity
  8
0
 62
256
370
-1
 48
1.0
  6
BYLAYER
100
AcDbLine
 10
73.3815002441406250
 20
-81.7477264404296875
 30
0.0000000000000000
 11
73.3818740844726563
 21
-94.5801544189453125
 31
0.0000000000000000
  0
LINE
  5
46
100
AcDbEntity
  8
0
 62
256
370
-1
 48
1.0
  6
BYLAYER
100
AcDbLine
 10
73.3818740844726563
 20
-94.5801544189453125
 30
0.0000000000000000
 11
12.4968852996826172
 21
-94.5819015502929688
 31
0.0000000000000000
  0
LINE
  5
47
100
AcDbEntity
  8
0
 62
256
370
-1
 48
1.0
  6
BYLAYER
100
AcDbLine
 10
-27.8852252960205078
 20
-94.5830612182617188
 30
0.0000000000000000
 11
-57.6517639160156250
 21
-94.5839157104492188
 31
0.0000000000000000
  0
LINE
  5
48
100
AcDbEntity
  8
0
 62
256
370
-1
 48
1.0
  6
BYLAYER
100
AcDbLine
 10
-13.7721023559570313
 20
-4.1028985977172852
 30
0.0000000000000000
 11
73.3792724609375000
 21
-4.1003985404968262
 31
0.0000000000000000
  0
MTEXT
  5
49
100
AcDbEntity
  8
0
 62
256
370
-1
 48
1.0
  6
BYLAYER
100
AcDbMText
 10
-115.2259445190429688
 20
90.1365585327148438
 30
0.0000000000000000
 40
5.2000000000000002
 41
0.0000000000000000
 71
5
 72
1
  1
\u+0046\u+006f\u+0079\u+0065\u+0072
  7
YouYuan
 50
0.0000000000000000
 73
1
 44
0.2500000000000000
  0
LINE
  5
4A
100
AcDbEntity
  8
0
 62
256
370
-1
 48
1.0
  6
BYLAYER
100
AcDbLine
 10
-57.3358802795410156
 20
136.9823608398437500
 30
0.0000000000000000
 11
-57.3367919921875000
 21
-3.5561761856079102
 31
0.0000000000000000
  0
LINE
  5
4B
100
AcDbEntity
  8
0
 62
256
370
-1
 48
1.0
  6
BYLAYER
100
AcDbLine
 10
-195.7231445312500000
 20
-3.5552778244018555
 30
0.0000000000000000
 11
-195.7222290039062500
 21
136.9832611083984375
 31
0.0000000000000000
  0
LINE
  5
4C
100
AcDbEntity
  8
0
 62
256
370
-1
 48
1.0
  6
BYLAYER
100
AcDbLine
 10
-195.7222290039062500
 20
136.9832611083984375
 30
0.0000000000000000
 11
-115.9399948120117188
 21
136.9827270507812500
 31
0.0000000000000000
  0
LINE
  5
4D
100
AcDbEntity
  8
0
 62
256
370
-1
 48
1.0
  6
BYLAYER
100
AcDbLine
 10
-69.2975997924804688
 20
136.9824371337890625
 30
0.0000000000000000
 11
-57.3358802795410156
 21
136.9823608398437500
 31
0.0000000000000000
  0
MTEXT
  5
4E
100
AcDbEntity
  8
0
 62
256
370
-1
 48
1.0
  6
BYLAYER
100
AcDbMText
 10
-60.6272583007812500
 20
166.0202026367187500
 30
0.0000000000000000
 40
5.2000000000000002
 41
0.0000000000000000
 71
5
 72
1
  1
\u+0046\u+0072\u+006f\u+006e\u+0074\u+002d\u+0044\u+006f\u+006f\u+0072
  7
YouYuan
 50
0.0000000000000000
 73
1
 44
0.2500000000000000
  0
LINE
  5
4F
100
AcDbEntity
  8
0
 62
256
370
-1
 48
1.0
  6
BYLAYER
100
AcDbLine
 10
74.5554809570312500
 20
194.5486755371093750
 30
0.0000000000000000
 11
74.5562210083007813
 21
137.4952392578125000
 31
0.0000000000000000
  0
LINE
  5
50
100
AcDbEntity
  8
0
 62
256
370
-1
 48
1.0
  6
BYLAYER
100
AcDbLine
 10
74.5562210083007813
 20
137.4952392578125000
 30
0.0000000000000000
 11
-195.8099975585937500
 21
137.4917144775390625
 31
0.0000000000000000
  0
LINE
  5
51
100
AcDbEntity
  8
0
 62
256
370
-1
 48
1.0
  6
BYLAYER
100
AcDbLine
 10
-195.8099975585937500
 20
137.4917144775390625
 30
0.0000000000000000
 11
-195.8107299804687500
 21
194.5451354980468750
 31
0.0000000000000000
  0
LINE
  5
52
100
AcDbEntity
  8
0
 62
256
370
-1
 48
1.0
  6
BYLAYER
100
AcDbLine
 10
-195.8107299804687500
 20
194.5451354980468750
 30
0.0000000000000000
 11
74.5554809570312500
 21
194.5486755371093750
 31
0.0000000000000000
  0
MTEXT
  5
53
100
AcDbEntity
  8
0
 62
256
370
-1
 48
1.0
  6
BYLAYER
100
AcDbMText
 10
20.0567245483398438
 20
-125.4992980957031250
 30
0.0000000000000000
 40
5.2000000000000002
 41
0.0000000000000000
 71
5
 72
1
  1
\u+004b\u+0069\u+0074\u+0063\u+0068\u+0065\u+006e
  7
YouYuan
 50
0.0000000000000000
 73
1
 44
0.2500000000000000
  0
LINE
  5
54
100
AcDbEntity
  8
0
 62
256
370
-1
 48
1.0
  6
BYLAYER
100
AcDbLine
 10
125.2625427246093750
 20
-95.3350448608398438
 30
0.0000000000000000
 11
125.3060150146484375
 21
-180.1955718994140625
 31
0.0000000000000000
  0
LINE
  5
55
100
AcDbEntity
  8
0
 62
256
370
-1
 48
1.0
  6
BYLAYER
100
AcDbLine
 10
125.3060150146484375
 20
-180.1955718994140625
 30
0.0000000000000000
 11
-56.6392097473144531
 21
-191.2298889160156250
 31
0.0000000000000000
  0
LINE
  5
56
100
AcDbEntity
  8
0
 62
256
370
-1
 48
1.0
  6
BYLAYER
100
AcDbLine
 10
-56.6392097473144531
 20
-191.2298889160156250
 30
0.0000000000000000
 11
-56.6882820129394531
 21
-95.4282455444335938
 31
0.0000000000000000
  0
LINE
  5
57
100
AcDbEntity
  8
0
 62
256
370
-1
 48
1.0
  6
BYLAYER
100
AcDbLine
 10
-56.6882820129394531
 20
-95.4282455444335938
 30
0.0000000000000000
 11
-28.3217067718505859
 21
-95.4137115478515625
 31
0.0000000000000000
  0
LINE
  5
58
100
AcDbEntity
  8
0
 62
256
370
-1
 48
1.0
  6
BYLAYER
100
AcDbLine
 10
11.4209794998168945
 20
-95.3933563232421875
 30
0.0000000000000000
 11
125.2625427246093750
 21
-95.3350448608398438
 31
0.0000000000000000
  0
MTEXT
  5
59
100
AcDbEntity
  8
0
 62
256
370
-1
 48
1.0
  6
BYLAYER
100
AcDbMText
 10
-114.8356399536132813
 20
-64.4328765869140625
 30
0.0000000000000000
 40
5.2000000000000002
 41
0.0000000000000000
 71
5
 72
1
  1
\u+004c\u+0069\u+0076\u+0069\u+006e\u+0067\u+002d\u+0052\u+006f\u+006f\u+006d
  7
YouYuan
 50
0.0000000000000000
 73
1
 44
0.2500000000000000
  0
LINE
  5
5A
100
AcDbEntity
  8
0
 62
256
370
-1
 48
1.0
  6
BYLAYER
100
AcDbLine
 10
-57.2422866821289063
 20
-94.6168518066406250
 30
0.0000000000000000
 11
-72.7681579589843750
 21
-94.6167831420898438
 31
0.0000000000000000
  0
LINE
  5
5B
100
AcDbEntity
  8
0
 62
256
370
-1
 48
1.0
  6
BYLAYER
100
AcDbLine
 10
-109.7085800170898438
 20
-94.6166305541992188
 30
0.0000000000000000
 11
-196.0266418457031250
 21
-94.6162643432617188
 31
0.0000000000000000
  0
LINE
  5
5C
100
AcDbEntity
  8
0
 62
256
370
-1
 48
1.0
  6
BYLAYER
100
AcDbLine
 10
-196.0266418457031250
 20
-94.6162643432617188
 30
0.0000000000000000
 11
-196.0262603759765625
 21
-4.0650629997253418
 31
0.0000000000000000
  0
ENDSEC
  0
SECTION
  2
OBJECTS
  0
DICTIONARY
  5
C
100
AcDbDictionary
280
0
281
1
  3
ACAD_GROUP
350
D
  3
ACAD_LAYOUT
350
1A
  3
ACAD_MLINESTYLE
350
17
  3
ACAD_PLOTSETTINGS
350
19
  3
ACAD_PLOTSTYLENAME
350
E
  3
AcDbVariableDictionary
350
65
  3
MY_OBJECTS
350
66
  0
DICTIONARY
  5
D
100
AcDbDictionary
280
0
281
1
  0
ACDBDICTIONARYWDFLT
  5
E
100
AcDbDictionary
281
1
  3
Normal
350
F
100
AcDbDictionaryWithDefault
340
F
  0
ACDBPLACEHOLDER
  5
F
  0
DICTIONARY
  5
17
100
AcDbDictionary
280
0
281
1
  3
Standard
350
18
  0
MLINESTYLE
  5
18
100
AcDbMlineStyle
  2
STANDARD
 70
0
  3

 62
256
 51
90.0
 52
90.0
 71
2
 49
0.5
 62
256
  6
BYLAYER
 49
-0.5
 62
256
  6
BYLAYER
  0
DICTIONARY
  5
19
100
AcDbDictionary
280
0
281
1
  0
DICTIONARY
  5
1A
100
AcDbDictionary
281
1
  3
Layout1
350
1E
  3
Layout2
350
26
  3
Model
350
22
  0
LAYOUT
  5
1E
100
AcDbPlotSettings
  1

  2
none_device
  4

  6

 40
0.0
 41
0.0
 42
0.0
 43
0.0
 44
0.0
 45
0.0
 46
0.0
 47
0.0
 48
0.0
 49
0.0
140
0.0
141
0.0
142
1.0
143
1.0
 70
688
 72
0
 73
0
 74
5
  7

 75
16
147
1.0
148
0.0
149
0.0
100
AcDbLayout
  1
Layout1
 70
1
 71
1
 10
0.0
 20
0.0
 11
420.0
 21
297.0
 12
0.0
 22
0.0
 32
0.0
 14
100000000000000000000.0
 24
100000000000000000000.0
 34
100000000000000000000.0
 15
-100000000000000000000.0
 25
-100000000000000000000.0
 35
-100000000000000000000.0
146
0.0
 13
0.0
 23
0.0
 33
0.0
 16
1.0
 26
0.0
 36
0.0
 17
0.0
 27
1.0
 37
0.0
 76
0
330
1B
  0
LAYOUT
  5
22
100
AcDbPlotSettings
  1

  2
none_device
  4

  6

 40
0.0
 41
0.0
 42
0.0
 43
0.0
 44
0.0
 45
0.0
 46
0.0
 47
0.0
 48
0.0
 49
0.0
140
0.0
141
0.0
142
1.0
143
1.0
 70
1,712
 72
0
 73
0
 74
0
  7

 75
0
147
1.0
148
0.0
149
0.0
100
AcDbLayout
  1
Model
 70
1
 71
0
 10
0.0
 20
0.0
 11
12.0
 21
9.0
 12
0.0
 22
0.0
 32
0.0
 14
0.0
 24
0.0
 34
0.0
 15
0.0
 25
0.0
 35
0.0
146
0.0
 13
0.0
 23
0.0
 33
0.0
 16
1.0
 26
0.0
 36
0.0
 17
0.0
 27
1.0
 37
0.0
 76
0
330
1F
  0
LAYOUT
  5
26
100
AcDbPlotSettings
  1

  2
none_device
  4

  6

 40
0.0
 41
0.0
 42
0.0
 43
0.0
 44
0.0
 45
0.0
 46
0.0
 47
0.0
 48
0.0
 49
0.0
140
0.0
141
0.0
142
1.0
143
1.0
 70
688
 72
0
 73
0
 74
5
  7

 75
16
147
1.0
148
0.0
149
0.0
100
AcDbLayout
  1
Layout2
 70
1
 71
2
 10
0.0
 20
0.0
 11
12.0
 21
9.0
 12
0.0
 22
0.0
 32
0.0
 14
0.0
 24
0.0
 34
0.0
 15
0.0
 25
0.0
 35
0.0
146
0.0
 13
0.0
 23
0.0
 33
0.0
 16
1.0
 26
0.0
 36
0.0
 17
0.0
 27
1.0
 37
0.0
 76
0
330
23
  0
DICTIONARY
  5
65
100
AcDbDictionary
281
1
  3
DIMASSOC
350
68
  3
HIDETEXT
350
67
  0
DICTIONARYVAR
  5
67
100
DictionaryVariables
280
0
  1
2
  0
DICTIONARYVAR
  5
68
100
DictionaryVariables
280
0
  1
1
  0
ENDSEC
  0
EOF
