999
dxflib 3.26.4.0
  0
SECTION
  2
HEADER
  9
$ACADVER
  1
AC1015
  9
$HANDSEED
  5
FFFF
  0
ENDSEC
  0
SECTION
  2
TABLES
  0
TABLE
  2
VPORT
  5
8
100
AcDbSymbolTable
 70
1
  0
VPORT
  5
30
100
AcDbSymbolTableRecord
100
AcDbViewportTableRecord
  2
*Active
 70
0
 10
0.0
 20
0.0
 11
1.0
 21
1.0
 12
286.30555555555549
 22
148.5
 13
0.0
 23
0.0
 14
10.0
 24
10.0
 15
10.0
 25
10.0
 16
0.0
 26
0.0
 36
1.0
 17
0.0
 27
0.0
 37
0.0
 40
297.0
 41
1.92798353909465
 42
50.0
 43
0.0
 44
0.0
 50
0.0
 51
0.0
 71
0
 72
100
 73
1
 74
3
 75
1
 76
1
 77
0
 78
0
281
0
 65
1
110
0.0
120
0.0
130
0.0
111
1.0
121
0.0
131
0.0
112
0.0
122
1.0
132
0.0
 79
0
146
0.0
  0
ENDTAB
  0
TABLE
  2
LTYPE
  5
5
100
AcDbSymbolTable
 70
1
  0
LTYPE
  5
16
100
AcDbSymbolTableRecord
100
AcDbLinetypeTableRecord
  2
CONTINUOUS
 70
0
  3
Solid line
 72
65
 73
0
 40
0.0
  0
LTYPE
  5
15
100
AcDbSymbolTableRecord
100
AcDbLinetypeTableRecord
  2
BYLAYER
 70
0
  3

 72
65
 73
0
 40
0.0
  0
LTYPE
  5
14
100
AcDbSymbolTableRecord
100
AcDbLinetypeTableRecord
  2
BYBLOCK
 70
0
  3

 72
65
 73
0
 40
0.0
  0
ENDTAB
  0
TABLE
  2
LAYER
  5
2
100
AcDbSymbolTable
 70
1
  0
LAYER
  5
10
100
AcDbSymbolTableRecord
100
AcDbLayerTableRecord
  2
0
 70
0
 62
1
420
16,711,680
  6
CONTINUOUS
370
15
390
F
  0
ENDTAB
  0
TABLE
  2
STYLE
  5
3
100
AcDbSymbolTable
 70
1
  0
STYLE
  5
31
100
AcDbSymbolTableRecord
100
AcDbTextStyleTableRecord
  2
Standard
 70
0
 40
0.0
 41
1.0
 50
0.0
 71
0
 42
2.5
  3

  4

1,001
ACAD
1,000
YouYuan
1,071
0
  0
ENDTAB
  0
TABLE
  2
VIEW
  5
6
100
AcDbSymbolTable
 70
0
  0
ENDTAB
  0
TABLE
  2
UCS
  5
7
100
AcDbSymbolTable
 70
0
  0
ENDTAB
  0
TABLE
  2
APPID
  5
9
100
AcDbSymbolTable
 70
1
  0
APPID
  5
12
100
AcDbSymbolTableRecord
100
AcDbRegAppTableRecord
  2
ACAD
 70
0
  0
ENDTAB
  0
TABLE
  2
DIMSTYLE
  5
A
100
AcDbSymbolTable
 70
1
100
AcDbDimStyleTable
 71
0
  0
DIMSTYLE
105
27
100
AcDbSymbolTableRecord
100
AcDbDimStyleTableRecord
  2
Standard
 41
2.5
 42
0.625
 43
3.75
 44
0.625
 70
0
 73
0
 74
0
 77
1
 78
8
140
2.5
141
2.5
143
0.03937007874016
147
0.625
171
3
172
1
271
2
272
2
274
3
278
44
283
0
284
8
340
31
  0
ENDTAB
  0
TABLE
  2
BLOCK_RECORD
  5
1
100
AcDbSymbolTable
 70
1
  0
BLOCK_RECORD
  5
1F
100
AcDbSymbolTableRecord
100
AcDbBlockTableRecord
  2
*Model_Space
340
22
  0
BLOCK_RECORD
  5
1B
100
AcDbSymbolTableRecord
100
AcDbBlockTableRecord
  2
*Paper_Space
340
1E
  0
BLOCK_RECORD
  5
23
100
AcDbSymbolTableRecord
100
AcDbBlockTableRecord
  2
*Paper_Space0
340
26
  0
ENDTAB
  0
ENDSEC
  0
SECTION
  2
BLOCKS
  0
BLOCK
  5
20
100
AcDbEntity
  8
0
100
AcDbBlockBegin
  2
*Model_Space
 70
0
 10
0.0
 20
0.0
 30
0.0
  3
*Model_Space
  1

  0
ENDBLK
  5
21
100
AcDbEntity
  8
0
100
AcDbBlockEnd
  0
BLOCK
  5
1C
100
AcDbEntity
 67
1
  8
0
100
AcDbBlockBegin
  2
*Paper_Space
 70
0
 10
0.0
 20
0.0
 30
0.0
  3
*Paper_Space
  1

  0
ENDBLK
  5
1D
100
AcDbEntity
 67
1
  8
0
100
AcDbBlockEnd
  0
BLOCK
  5
24
100
AcDbEntity
  8
0
100
AcDbBlockBegin
  2
*Paper_Space0
 70
0
 10
0.0
 20
0.0
 30
0.0
  3
*Paper_Space0
  1

  0
ENDBLK
  5
25
100
AcDbEntity
  8
0
100
AcDbBlockEnd
  0
ENDSEC
  0
SECTION
  2
ENTITIES
  0
MTEXT
  5
32
100
AcDbEntity
  8
0
 62
256
370
-1
 48
1.0
  6
BYLAYER
100
AcDbMText
 10
64.1604537963867188
 20
-28.0855503082275391
 30
0.0000000000000000
 40
5.2000000000000002
 41
0.0000000000000000
 71
5
 72
1
  1
\u+0042\u+0061\u+0074\u+0068\u+0072\u+006f\u+006f\u+006d\u+002d\u+0032
  7
YouYuan
 50
0.0000000000000000
 73
1
 44
0.2500000000000000
  0
LINE
  5
33
100
AcDbEntity
  8
0
 62
256
370
-1
 48
1.0
  6
BYLAYER
100
AcDbLine
 10
105.1506729125976563
 20
10.0456256866455078
 30
0.0000000000000000
 11
105.1512222290039063
 21
-66.3657150268554688
 31
0.0000000000000000
  0
LINE
  5
34
100
AcDbEntity
  8
0
 62
256
370
-1
 48
1.0
  6
BYLAYER
100
AcDbLine
 10
105.1512222290039063
 20
-66.3657150268554688
 30
0.0000000000000000
 11
36.8337364196777344
 21
-66.3662033081054688
 31
0.0000000000000000
  0
LINE
  5
35
100
AcDbEntity
  8
0
 62
256
370
-1
 48
1.0
  6
BYLAYER
100
AcDbLine
 10
36.8334579467773438
 20
-27.7865848541259766
 30
0.0000000000000000
 11
36.8331909179687500
 21
10.0451374053955078
 31
0.0000000000000000
  0
LINE
  5
36
100
AcDbEntity
  8
0
 62
256
370
-1
 48
1.0
  6
BYLAYER
100
AcDbLine
 10
36.8331909179687500
 20
10.0451374053955078
 30
0.0000000000000000
 11
105.1506729125976563
 21
10.0456256866455078
 31
0.0000000000000000
  0
MTEXT
  5
37
100
AcDbEntity
  8
0
 62
256
370
-1
 48
1.0
  6
BYLAYER
100
AcDbMText
 10
-136.5077972412109375
 20
-135.2605438232421875
 30
0.0000000000000000
 40
5.2000000000000002
 41
0.0000000000000000
 71
5
 72
1
  1
\u+0042\u+0065\u+0064\u+0072\u+006f\u+006f\u+006d\u+0033
  7
YouYuan
 50
0.0000000000000000
 73
1
 44
0.2500000000000000
  0
LINE
  5
38
100
AcDbEntity
  8
0
 62
256
370
-1
 48
1.0
  6
BYLAYER
100
AcDbLine
 10
-67.0674285888671875
 20
-107.6796340942382813
 30
0.0000000000000000
 11
-67.0500717163085938
 21
-190.3786621093750000
 31
0.0000000000000000
  0
LINE
  5
39
100
AcDbEntity
  8
0
 62
256
370
-1
 48
1.0
  6
BYLAYER
100
AcDbLine
 10
-67.0500717163085938
 20
-190.3786621093750000
 30
0.0000000000000000
 11
-214.9566345214843750
 21
-190.4096984863281250
 31
0.0000000000000000
  0
LINE
  5
3A
100
AcDbEntity
  8
0
 62
256
370
-1
 48
1.0
  6
BYLAYER
100
AcDbLine
 10
-214.9566345214843750
 20
-190.4096984863281250
 30
0.0000000000000000
 11
-214.9739837646484375
 21
-107.7106704711914063
 31
0.0000000000000000
  0
LINE
  5
3B
100
AcDbEntity
  8
0
 62
256
370
-1
 48
1.0
  6
BYLAYER
100
AcDbLine
 10
-214.9739837646484375
 20
-107.7106704711914063
 30
0.0000000000000000
 11
-144.8137207031250000
 21
-107.6959457397460938
 31
0.0000000000000000
  0
LINE
  5
3C
100
AcDbEntity
  8
0
 62
256
370
-1
 48
1.0
  6
BYLAYER
100
AcDbLine
 10
-110.1849594116210938
 20
-107.6886825561523438
 30
0.0000000000000000
 11
-67.0674285888671875
 21
-107.6796340942382813
 31
0.0000000000000000
  0
MTEXT
  5
3D
100
AcDbEntity
  8
0
 62
256
370
-1
 48
1.0
  6
BYLAYER
100
AcDbMText
 10
-17.4210376739501953
 20
61.0994567871093750
 30
0.0000000000000000
 40
5.2000000000000002
 41
0.0000000000000000
 71
5
 72
1
  1
\u+0042\u+0065\u+0064\u+0072\u+006f\u+006f\u+006d\u+0034
  7
YouYuan
 50
0.0000000000000000
 73
1
 44
0.2500000000000000
  0
LINE
  5
3E
100
AcDbEntity
  8
0
 62
256
370
-1
 48
1.0
  6
BYLAYER
100
AcDbLine
 10
104.4305801391601563
 20
134.4336547851562500
 30
0.0000000000000000
 11
104.4338760375976563
 21
10.5000743865966797
 31
0.0000000000000000
  0
LINE
  5
3F
100
AcDbEntity
  8
0
 62
256
370
-1
 48
1.0
  6
BYLAYER
100
AcDbLine
 10
104.4338760375976563
 20
10.5000743865966797
 30
0.0000000000000000
 11
-78.3464736938476563
 21
10.4952039718627930
 31
0.0000000000000000
  0
LINE
  5
40
100
AcDbEntity
  8
0
 62
256
370
-1
 48
1.0
  6
BYLAYER
100
AcDbLine
 10
-78.3464736938476563
 20
10.4952039718627930
 30
0.0000000000000000
 11
-78.3467483520507813
 21
20.7746715545654297
 31
0.0000000000000000
  0
LINE
  5
41
100
AcDbEntity
  8
0
 62
256
370
-1
 48
1.0
  6
BYLAYER
100
AcDbLine
 10
-78.3476791381835938
 20
55.9643478393554688
 30
0.0000000000000000
 11
-78.3497695922851563
 21
134.4287872314453125
 31
0.0000000000000000
  0
LINE
  5
42
100
AcDbEntity
  8
0
 62
256
370
-1
 48
1.0
  6
BYLAYER
100
AcDbLine
 10
-78.3497695922851563
 20
134.4287872314453125
 30
0.0000000000000000
 11
104.4305801391601563
 21
134.4336547851562500
 31
0.0000000000000000
  0
MTEXT
  5
43
100
AcDbEntity
  8
0
 62
256
370
-1
 48
1.0
  6
BYLAYER
100
AcDbMText
 10
0.2117754667997360
 20
-108.0771102905273438
 30
0.0000000000000000
 40
5.2000000000000002
 41
0.0000000000000000
 71
5
 72
1
  1
\u+0042\u+0065\u+0064\u+0072\u+006f\u+006f\u+006d\u+0035
  7
YouYuan
 50
0.0000000000000000
 73
1
 44
0.2500000000000000
  0
LINE
  5
44
100
AcDbEntity
  8
0
 62
256
370
-1
 48
1.0
  6
BYLAYER
100
AcDbLine
 10
104.7545471191406250
 20
-67.4559631347656250
 30
0.0000000000000000
 11
104.4095535278320313
 21
-190.1999359130859375
 31
0.0000000000000000
  0
LINE
  5
45
100
AcDbEntity
  8
0
 62
256
370
-1
 48
1.0
  6
BYLAYER
100
AcDbLine
 10
104.4095535278320313
 20
-190.1999359130859375
 30
0.0000000000000000
 11
-66.1993484497070313
 21
-189.7204132080078125
 31
0.0000000000000000
  0
LINE
  5
46
100
AcDbEntity
  8
0
 62
256
370
-1
 48
1.0
  6
BYLAYER
100
AcDbLine
 10
-66.1993484497070313
 20
-189.7204132080078125
 30
0.0000000000000000
 11
-65.8543624877929688
 21
-66.9764480590820313
 31
0.0000000000000000
  0
LINE
  5
47
100
AcDbEntity
  8
0
 62
256
370
-1
 48
1.0
  6
BYLAYER
100
AcDbLine
 10
-65.8543624877929688
 20
-66.9764480590820313
 30
0.0000000000000000
 11
-53.7399368286132813
 21
-67.0104980468750000
 31
0.0000000000000000
  0
LINE
  5
48
100
AcDbEntity
  8
0
 62
256
370
-1
 48
1.0
  6
BYLAYER
100
AcDbLine
 10
-22.0998001098632813
 20
-67.0994262695312500
 30
0.0000000000000000
 11
104.7545471191406250
 21
-67.4559631347656250
 31
0.0000000000000000
  0
MTEXT
  5
49
100
AcDbEntity
  8
0
 62
256
370
-1
 48
1.0
  6
BYLAYER
100
AcDbMText
 10
-29.0563926696777344
 20
-35.5620155334472656
 30
0.0000000000000000
 40
5.2000000000000002
 41
0.0000000000000000
 71
5
 72
1
  1
\u+0048\u+0061\u+006c\u+006c\u+0077\u+0061\u+0079\u+002d\u+0031
  7
YouYuan
 50
0.0000000000000000
 73
1
 44
0.2500000000000000
  0
LINE
  5
4A
100
AcDbEntity
  8
0
 62
256
370
-1
 48
1.0
  6
BYLAYER
100
AcDbLine
 10
-5.8721237182617188
 20
10.2528886795043945
 30
0.0000000000000000
 11
-5.8719754219055176
 21
-3.3156766891479492
 31
0.0000000000000000
  0
LINE
  5
4B
100
AcDbEntity
  8
0
 62
256
370
-1
 48
1.0
  6
BYLAYER
100
AcDbLine
 10
-5.8716139793395996
 20
-35.8565330505371094
 30
0.0000000000000000
 11
-5.8712759017944336
 21
-66.4569168090820313
 31
0.0000000000000000
  0
LINE
  5
4C
100
AcDbEntity
  8
0
 62
256
370
-1
 48
1.0
  6
BYLAYER
100
AcDbLine
 10
-5.8712759017944336
 20
-66.4569168090820313
 30
0.0000000000000000
 11
-21.0298728942871094
 21
-66.4570846557617188
 31
0.0000000000000000
  0
LINE
  5
4D
100
AcDbEntity
  8
0
 62
256
370
-1
 48
1.0
  6
BYLAYER
100
AcDbLine
 10
-55.3227958679199219
 20
-66.4574661254882813
 30
0.0000000000000000
 11
-66.3053131103515625
 21
-66.4575805664062500
 31
0.0000000000000000
  0
LINE
  5
4E
100
AcDbEntity
  8
0
 62
256
370
-1
 48
1.0
  6
BYLAYER
100
AcDbLine
 10
-66.3061599731445313
 20
10.2522201538085938
 30
0.0000000000000000
 11
-5.8721237182617188
 21
10.2528886795043945
 31
0.0000000000000000
  0
MTEXT
  5
4F
100
AcDbEntity
  8
0
 62
256
370
-1
 48
1.0
  6
BYLAYER
100
AcDbMText
 10
12.4555072784423828
 20
-25.4919338226318359
 30
0.0000000000000000
 40
5.2000000000000002
 41
0.0000000000000000
 71
5
 72
1
  1
\u+0048\u+0061\u+006c\u+006c\u+0077\u+0061\u+0079\u+002d\u+0032
  7
YouYuan
 50
0.0000000000000000
 73
1
 44
0.2500000000000000
  0
LINE
  5
50
100
AcDbEntity
  8
0
 62
256
370
-1
 48
1.0
  6
BYLAYER
100
AcDbLine
 10
36.2677383422851563
 20
10.0925331115722656
 30
0.0000000000000000
 11
36.2663078308105469
 21
-28.7236232757568359
 31
0.0000000000000000
  0
LINE
  5
51
100
AcDbEntity
  8
0
 62
256
370
-1
 48
1.0
  6
BYLAYER
100
AcDbLine
 10
36.2649154663085938
 20
-66.5697708129882813
 30
0.0000000000000000
 11
-5.4041934013366699
 21
-66.5682373046875000
 31
0.0000000000000000
  0
LINE
  5
52
100
AcDbEntity
  8
0
 62
256
370
-1
 48
1.0
  6
BYLAYER
100
AcDbLine
 10
-5.4041934013366699
 20
-66.5682373046875000
 30
0.0000000000000000
 11
-5.4030771255493164
 21
-36.2479171752929688
 31
0.0000000000000000
  0
LINE
  5
53
100
AcDbEntity
  8
0
 62
256
370
-1
 48
1.0
  6
BYLAYER
100
AcDbLine
 10
-5.4017624855041504
 20
-0.5205845236778259
 30
0.0000000000000000
 11
-5.4013733863830566
 21
10.0940647125244141
 31
0.0000000000000000
  0
LINE
  5
54
100
AcDbEntity
  8
0
 62
256
370
-1
 48
1.0
  6
BYLAYER
100
AcDbLine
 10
-5.4013733863830566
 20
10.0940647125244141
 30
0.0000000000000000
 11
36.2677383422851563
 21
10.0925331115722656
 31
0.0000000000000000
  0
MTEXT
  5
55
100
AcDbEntity
  8
0
 62
256
370
-1
 48
1.0
  6
BYLAYER
100
AcDbMText
 10
-118.8917465209960938
 20
-57.1275253295898438
 30
0.0000000000000000
 40
5.2000000000000002
 41
0.0000000000000000
 71
5
 72
1
  1
\u+004c\u+0061\u+006e\u+0064\u+0069\u+006e\u+0067
  7
YouYuan
 50
0.0000000000000000
 73
1
 44
0.2500000000000000
  0
LINE
  5
56
100
AcDbEntity
  8
0
 62
256
370
-1
 48
1.0
  6
BYLAYER
100
AcDbLine
 10
-66.7455062866210938
 20
-58.6528739929199219
 30
0.0000000000000000
 11
-66.7507476806640625
 21
-107.0784072875976563
 31
0.0000000000000000
  0
LINE
  5
57
100
AcDbEntity
  8
0
 62
256
370
-1
 48
1.0
  6
BYLAYER
100
AcDbLine
 10
-66.7507476806640625
 20
-107.0784072875976563
 30
0.0000000000000000
 11
-104.1764678955078125
 21
-107.0743484497070313
 31
0.0000000000000000
  0
LINE
  5
58
100
AcDbEntity
  8
0
 62
256
370
-1
 48
1.0
  6
BYLAYER
100
AcDbLine
 10
-138.4210510253906250
 20
-107.0706405639648438
 30
0.0000000000000000
 11
-214.6769561767578125
 21
-107.0623855590820313
 31
0.0000000000000000
  0
LINE
  5
59
100
AcDbEntity
  8
0
 62
256
370
-1
 48
1.0
  6
BYLAYER
100
AcDbLine
 10
-214.6769561767578125
 20
-107.0623855590820313
 30
0.0000000000000000
 11
-214.6642761230468750
 21
9.9830570220947266
 31
0.0000000000000000
  0
LINE
  5
5A
100
AcDbEntity
  8
0
 62
256
370
-1
 48
1.0
  6
BYLAYER
100
AcDbLine
 10
-78.9608993530273438
 20
9.9683580398559570
 30
0.0000000000000000
 11
-66.7380752563476563
 21
9.9670352935791016
 31
0.0000000000000000
  0
MTEXT
  5
5B
100
AcDbEntity
  8
0
 62
256
370
-1
 48
1.0
  6
BYLAYER
100
AcDbMText
 10
-123.9612960815429688
 20
44.8851318359375000
 30
0.0000000000000000
 40
5.2000000000000002
 41
0.0000000000000000
 71
5
 72
1
  1
\u+004c\u+0061\u+006e\u+0064\u+0069\u+006e\u+0067\u+002d\u+0032
  7
YouYuan
 50
0.0000000000000000
 73
1
 44
0.2500000000000000
  0
LINE
  5
5C
100
AcDbEntity
  8
0
 62
256
370
-1
 48
1.0
  6
BYLAYER
100
AcDbLine
 10
-78.5710144042968750
 20
85.0588226318359375
 30
0.0000000000000000
 11
-78.5771560668945313
 21
57.2188682556152344
 31
0.0000000000000000
  0
LINE
  5
5D
100
AcDbEntity
  8
0
 62
256
370
-1
 48
1.0
  6
BYLAYER
100
AcDbLine
 10
-78.5850830078125000
 20
21.2140636444091797
 30
0.0000000000000000
 11
-78.5874786376953125
 21
10.3501119613647461
 31
0.0000000000000000
  0
LINE
  5
5E
100
AcDbEntity
  8
0
 62
256
370
-1
 48
1.0
  6
BYLAYER
100
AcDbLine
 10
-214.7317504882812500
 20
10.3801078796386719
 30
0.0000000000000000
 11
-214.7152862548828125
 21
85.0888137817382813
 31
0.0000000000000000
  0
LINE
  5
5F
100
AcDbEntity
  8
0
 62
256
370
-1
 48
1.0
  6
BYLAYER
100
AcDbLine
 10
-214.7152862548828125
 20
85.0888137817382813
 30
0.0000000000000000
 11
-78.5710144042968750
 21
85.0588226318359375
 31
0.0000000000000000
  0
ENDSEC
  0
SECTION
  2
OBJECTS
  0
DICTIONARY
  5
C
100
AcDbDictionary
280
0
281
1
  3
ACAD_GROUP
350
D
  3
ACAD_LAYOUT
350
1A
  3
ACAD_MLINESTYLE
350
17
  3
ACAD_PLOTSETTINGS
350
19
  3
ACAD_PLOTSTYLENAME
350
E
  3
AcDbVariableDictionary
350
65
  3
MY_OBJECTS
350
66
  0
DICTIONARY
  5
D
100
AcDbDictionary
280
0
281
1
  0
ACDBDICTIONARYWDFLT
  5
E
100
AcDbDictionary
281
1
  3
Normal
350
F
100
AcDbDictionaryWithDefault
340
F
  0
ACDBPLACEHOLDER
  5
F
  0
DICTIONARY
  5
17
100
AcDbDictionary
280
0
281
1
  3
Standard
350
18
  0
MLINESTYLE
  5
18
100
AcDbMlineStyle
  2
STANDARD
 70
0
  3

 62
256
 51
90.0
 52
90.0
 71
2
 49
0.5
 62
256
  6
BYLAYER
 49
-0.5
 62
256
  6
BYLAYER
  0
DICTIONARY
  5
19
100
AcDbDictionary
280
0
281
1
  0
DICTIONARY
  5
1A
100
AcDbDictionary
281
1
  3
Layout1
350
1E
  3
Layout2
350
26
  3
Model
350
22
  0
LAYOUT
  5
1E
100
AcDbPlotSettings
  1

  2
none_device
  4

  6

 40
0.0
 41
0.0
 42
0.0
 43
0.0
 44
0.0
 45
0.0
 46
0.0
 47
0.0
 48
0.0
 49
0.0
140
0.0
141
0.0
142
1.0
143
1.0
 70
688
 72
0
 73
0
 74
5
  7

 75
16
147
1.0
148
0.0
149
0.0
100
AcDbLayout
  1
Layout1
 70
1
 71
1
 10
0.0
 20
0.0
 11
420.0
 21
297.0
 12
0.0
 22
0.0
 32
0.0
 14
100000000000000000000.0
 24
100000000000000000000.0
 34
100000000000000000000.0
 15
-100000000000000000000.0
 25
-100000000000000000000.0
 35
-100000000000000000000.0
146
0.0
 13
0.0
 23
0.0
 33
0.0
 16
1.0
 26
0.0
 36
0.0
 17
0.0
 27
1.0
 37
0.0
 76
0
330
1B
  0
LAYOUT
  5
22
100
AcDbPlotSettings
  1

  2
none_device
  4

  6

 40
0.0
 41
0.0
 42
0.0
 43
0.0
 44
0.0
 45
0.0
 46
0.0
 47
0.0
 48
0.0
 49
0.0
140
0.0
141
0.0
142
1.0
143
1.0
 70
1,712
 72
0
 73
0
 74
0
  7

 75
0
147
1.0
148
0.0
149
0.0
100
AcDbLayout
  1
Model
 70
1
 71
0
 10
0.0
 20
0.0
 11
12.0
 21
9.0
 12
0.0
 22
0.0
 32
0.0
 14
0.0
 24
0.0
 34
0.0
 15
0.0
 25
0.0
 35
0.0
146
0.0
 13
0.0
 23
0.0
 33
0.0
 16
1.0
 26
0.0
 36
0.0
 17
0.0
 27
1.0
 37
0.0
 76
0
330
1F
  0
LAYOUT
  5
26
100
AcDbPlotSettings
  1

  2
none_device
  4

  6

 40
0.0
 41
0.0
 42
0.0
 43
0.0
 44
0.0
 45
0.0
 46
0.0
 47
0.0
 48
0.0
 49
0.0
140
0.0
141
0.0
142
1.0
143
1.0
 70
688
 72
0
 73
0
 74
5
  7

 75
16
147
1.0
148
0.0
149
0.0
100
AcDbLayout
  1
Layout2
 70
1
 71
2
 10
0.0
 20
0.0
 11
12.0
 21
9.0
 12
0.0
 22
0.0
 32
0.0
 14
0.0
 24
0.0
 34
0.0
 15
0.0
 25
0.0
 35
0.0
146
0.0
 13
0.0
 23
0.0
 33
0.0
 16
1.0
 26
0.0
 36
0.0
 17
0.0
 27
1.0
 37
0.0
 76
0
330
23
  0
DICTIONARY
  5
65
100
AcDbDictionary
281
1
  3
DIMASSOC
350
68
  3
HIDETEXT
350
67
  0
DICTIONARYVAR
  5
67
100
DictionaryVariables
280
0
  1
2
  0
DICTIONARYVAR
  5
68
100
DictionaryVariables
280
0
  1
1
  0
ENDSEC
  0
EOF
