<svg width="1434" height="241" viewBox="0 0 1434 241" fill="none" xmlns="http://www.w3.org/2000/svg">
<path d="M60.9657 155.562C84.8124 145.342 122.285 141.165 122.285 141.165C122.285 141.165 159.759 145.342 180.198 155.562C200.638 165.782 214.265 182.813 214.265 182.813L122.285 233.903L23.4922 182.813C23.4922 182.813 37.1189 165.782 60.9657 155.562Z" fill="#0063D3" fill-opacity="0.72"/>
<path d="M118.924 50.2422C153.006 50.2422 214.356 71.3154 214.356 71.3154C214.356 71.3154 195.61 131.024 180.273 159.122C164.958 187.18 119.056 232.969 118.924 233.102C118.831 233.009 72.8969 187.192 57.5753 159.122C42.2381 131.024 23.4922 71.3154 23.4922 71.3154C23.4922 71.3154 84.8415 50.2422 118.924 50.2422Z" fill="#54C0FF" fill-opacity="0.61"/>
<path d="M105.269 13.5352C113.701 8.66682 124.09 8.66682 132.522 13.5352L205.577 55.7138C214.009 60.5816 219.204 69.5788 219.204 79.3155V163.672C219.204 173.409 214.009 182.406 205.577 187.274L132.522 229.453C124.09 234.321 113.701 234.321 105.269 229.453L32.2138 187.274C23.7817 182.406 18.5872 173.409 18.5872 163.672V79.3155C18.5872 69.5788 23.7817 60.5816 32.2138 55.7138L105.269 13.5352Z" stroke="#003199" stroke-width="13"/>
<path d="M57.5687 90.8348C59.4277 92.172 61.2964 93.4867 63.1749 94.7788C80.0809 106.408 97.7743 116.216 116.255 124.201C116.745 124.413 117.235 124.623 117.726 124.832L120.683 126.129L123.697 124.769C141.476 116.522 158.473 106.565 174.687 94.8969C176.538 93.5651 178.378 92.2111 180.208 90.8348C180.208 90.8348 180.208 90.8348 180.208 90.8348C177.97 91.3198 175.742 91.8271 173.525 92.3566C154.095 96.9963 135.448 103.346 117.584 111.407L123.554 111.344C123.066 111.13 122.576 110.917 122.087 110.705C103.606 102.719 84.3381 96.556 64.2829 92.2145C62.0545 91.7321 59.8165 91.2722 57.5687 90.8348Z" fill="white"/>
<path d="M126.275 118.089C121.374 118.089 116.473 118.089 111.572 118.089C111.695 118.997 111.817 119.906 111.94 120.814C114.145 137.166 116.351 153.518 118.556 169.87C118.679 170.778 118.801 171.687 118.924 172.595C118.924 172.595 118.924 172.595 118.924 172.595C119.046 171.687 119.169 170.778 119.291 169.87C121.497 153.518 123.702 137.166 125.907 120.814C126.03 119.906 126.152 118.997 126.275 118.089Z" fill="white"/>
<path d="M283.647 177.38V68.7024H304.451L350.717 145.398H339.694L385.183 68.7024H405.832L406.143 177.38H382.544L382.389 104.877H386.736L350.406 165.892H339.073L301.967 104.877H307.246V177.38H283.647ZM471.672 178.622C462.15 178.622 453.766 176.759 446.521 173.033C439.379 169.307 433.842 164.236 429.909 157.818C425.976 151.298 424.009 143.897 424.009 135.617C424.009 127.233 425.924 119.833 429.753 113.416C433.686 106.895 439.017 101.823 445.745 98.2007C452.472 94.4746 460.08 92.6115 468.567 92.6115C476.744 92.6115 484.092 94.3711 490.613 97.8902C497.237 101.306 502.464 106.274 506.294 112.795C510.123 119.212 512.038 126.923 512.038 135.927C512.038 136.859 511.986 137.946 511.883 139.188C511.779 140.326 511.676 141.413 511.572 142.448H443.726V128.32H498.842L489.526 132.512C489.526 128.165 488.646 124.387 486.887 121.178C485.127 117.97 482.695 115.486 479.59 113.726C476.485 111.863 472.862 110.932 468.722 110.932C464.582 110.932 460.908 111.863 457.699 113.726C454.594 115.486 452.162 118.021 450.402 121.334C448.643 124.542 447.763 128.372 447.763 132.822V136.548C447.763 141.103 448.746 145.139 450.713 148.658C452.783 152.074 455.629 154.713 459.252 156.576C462.978 158.336 467.325 159.216 472.293 159.216C476.744 159.216 480.625 158.543 483.937 157.197C487.353 155.852 490.458 153.833 493.252 151.142L506.138 165.115C502.309 169.462 497.496 172.826 491.7 175.207C485.904 177.484 479.228 178.622 471.672 178.622ZM562.319 178.622C552.486 178.622 544.827 176.138 539.341 171.17C533.855 166.099 531.113 158.595 531.113 148.658V75.3783H555.332V148.348C555.332 151.867 556.264 154.61 558.127 156.576C559.99 158.439 562.526 159.371 565.734 159.371C569.564 159.371 572.824 158.336 575.515 156.266L582.036 173.344C579.552 175.103 576.55 176.449 573.031 177.38C569.616 178.208 566.045 178.622 562.319 178.622ZM518.226 114.347V95.7166H576.136V114.347H518.226ZM646.866 177.38V161.079L645.313 157.508V128.32C645.313 123.145 643.709 119.108 640.5 116.21C637.395 113.312 632.582 111.863 626.061 111.863C621.611 111.863 617.212 112.588 612.865 114.037C608.621 115.382 604.999 117.245 601.997 119.626L593.303 102.703C597.857 99.4945 603.343 97.0104 609.76 95.2509C616.177 93.4913 622.698 92.6115 629.322 92.6115C642.053 92.6115 651.937 95.6131 658.975 101.616C666.014 107.619 669.533 116.986 669.533 129.717V177.38H646.866ZM621.404 178.622C614.883 178.622 609.294 177.536 604.636 175.362C599.979 173.085 596.408 170.032 593.924 166.202C591.44 162.372 590.198 158.077 590.198 153.316C590.198 148.348 591.388 144.001 593.769 140.275C596.253 136.548 600.134 133.65 605.413 131.58C610.691 129.407 617.574 128.32 626.061 128.32H648.263V142.448H628.701C623.008 142.448 619.075 143.38 616.901 145.243C614.831 147.106 613.796 149.435 613.796 152.229C613.796 155.334 614.987 157.818 617.367 159.681C619.851 161.441 623.215 162.321 627.459 162.321C631.495 162.321 635.118 161.389 638.327 159.526C641.535 157.56 643.864 154.713 645.313 150.987L649.039 162.165C647.28 167.548 644.071 171.636 639.413 174.431C634.756 177.225 628.753 178.622 621.404 178.622ZM693.16 177.38V68.7024H740.202C749.932 68.7024 758.315 70.3067 765.354 73.5153C772.392 76.6203 777.826 81.1227 781.655 87.0224C785.485 92.922 787.4 99.9602 787.4 108.137C787.4 116.21 785.485 123.197 781.655 129.096C777.826 134.892 772.392 139.343 765.354 142.448C758.315 145.553 749.932 147.106 740.202 147.106H707.133L718.312 136.083V177.38H693.16ZM762.249 177.38L735.079 137.946H761.938L789.418 177.38H762.249ZM718.312 138.877L707.133 127.078H738.805C746.568 127.078 752.364 125.422 756.194 122.11C760.023 118.694 761.938 114.037 761.938 108.137C761.938 102.134 760.023 97.4762 756.194 94.1641C752.364 90.852 746.568 89.1959 738.805 89.1959H707.133L718.312 77.2414V138.877ZM845.364 178.622C836.463 178.622 828.545 176.759 821.61 173.033C814.779 169.307 809.345 164.236 805.309 157.818C801.375 151.298 799.409 143.897 799.409 135.617C799.409 127.233 801.375 119.833 805.309 113.416C809.345 106.895 814.779 101.823 821.61 98.2007C828.545 94.4746 836.463 92.6115 845.364 92.6115C854.162 92.6115 862.028 94.4746 868.963 98.2007C875.898 101.823 881.331 106.843 885.265 113.26C889.198 119.678 891.164 127.13 891.164 135.617C891.164 143.897 889.198 151.298 885.265 157.818C881.331 164.236 875.898 169.307 868.963 173.033C862.028 176.759 854.162 178.622 845.364 178.622ZM845.364 158.75C849.401 158.75 853.023 157.818 856.232 155.955C859.441 154.092 861.976 151.453 863.839 148.037C865.703 144.518 866.634 140.378 866.634 135.617C866.634 130.752 865.703 126.612 863.839 123.197C861.976 119.781 859.441 117.142 856.232 115.279C853.023 113.416 849.401 112.484 845.364 112.484C841.328 112.484 837.705 113.416 834.496 115.279C831.288 117.142 828.7 119.781 826.734 123.197C824.871 126.612 823.939 130.752 823.939 135.617C823.939 140.378 824.871 144.518 826.734 148.037C828.7 151.453 831.288 154.092 834.496 155.955C837.705 157.818 841.328 158.75 845.364 158.75ZM947.098 178.622C938.197 178.622 930.279 176.759 923.344 173.033C916.513 169.307 911.079 164.236 907.043 157.818C903.109 151.298 901.143 143.897 901.143 135.617C901.143 127.233 903.109 119.833 907.043 113.416C911.079 106.895 916.513 101.823 923.344 98.2007C930.279 94.4746 938.197 92.6115 947.098 92.6115C955.896 92.6115 963.762 94.4746 970.697 98.2007C977.632 101.823 983.065 106.843 986.999 113.26C990.932 119.678 992.898 127.13 992.898 135.617C992.898 143.897 990.932 151.298 986.999 157.818C983.065 164.236 977.632 169.307 970.697 173.033C963.762 176.759 955.896 178.622 947.098 178.622ZM947.098 158.75C951.135 158.75 954.757 157.818 957.966 155.955C961.175 154.092 963.71 151.453 965.573 148.037C967.437 144.518 968.368 140.378 968.368 135.617C968.368 130.752 967.437 126.612 965.573 123.197C963.71 119.781 961.175 117.142 957.966 115.279C954.757 113.416 951.135 112.484 947.098 112.484C943.062 112.484 939.439 113.416 936.23 115.279C933.022 117.142 930.434 119.781 928.468 123.197C926.605 126.612 925.673 130.752 925.673 135.617C925.673 140.378 926.605 144.518 928.468 148.037C930.434 151.453 933.022 154.092 936.23 155.955C939.439 157.818 943.062 158.75 947.098 158.75ZM1116.06 92.6115C1122.68 92.6115 1128.53 93.9571 1133.6 96.6481C1138.78 99.2357 1142.81 103.272 1145.71 108.758C1148.71 114.14 1150.21 121.075 1150.21 129.562V177.38H1125.99V133.288C1125.99 126.56 1124.6 121.592 1121.8 118.384C1119.01 115.175 1115.07 113.571 1110 113.571C1106.48 113.571 1103.33 114.399 1100.53 116.055C1097.74 117.607 1095.56 119.988 1094.01 123.197C1092.46 126.405 1091.68 130.494 1091.68 135.462V177.38H1067.46V133.288C1067.46 126.56 1066.07 121.592 1063.27 118.384C1060.58 115.175 1056.7 113.571 1051.63 113.571C1048.11 113.571 1044.95 114.399 1042.16 116.055C1039.36 117.607 1037.19 119.988 1035.64 123.197C1034.08 126.405 1033.31 130.494 1033.31 135.462V177.38H1009.09V93.8536H1032.22V116.676L1027.87 110C1030.77 104.307 1034.86 100.012 1040.14 97.1139C1045.52 94.1123 1051.63 92.6115 1058.46 92.6115C1066.12 92.6115 1072.79 94.5781 1078.49 98.5112C1084.28 102.341 1088.11 108.24 1089.97 116.21L1081.44 113.881C1084.23 107.361 1088.68 102.186 1094.79 98.3559C1101 94.5263 1108.09 92.6115 1116.06 92.6115Z" fill="#0046AF"/>
<path d="M1221.06 181.213C1212.09 181.213 1203.17 180.045 1194.32 177.709C1185.46 175.25 1177.96 171.807 1171.82 167.38L1183.44 144.508C1188.35 148.074 1194.07 150.903 1200.59 152.993C1207.11 155.083 1213.68 156.129 1220.33 156.129C1227.83 156.129 1233.73 154.653 1238.03 151.702C1242.34 148.751 1244.49 144.693 1244.49 139.528C1244.49 134.61 1242.58 130.736 1238.77 127.908C1234.96 125.08 1228.81 123.666 1220.33 123.666H1206.68V103.93L1242.64 63.1674L1245.96 73.8653H1178.27V49.8872H1268.65V69.2541L1232.87 110.017L1217.74 101.348H1226.41C1242.27 101.348 1254.26 104.914 1262.38 112.046C1270.49 119.178 1274.55 128.339 1274.55 139.528C1274.55 146.783 1272.65 153.608 1268.83 160.002C1265.02 166.273 1259.18 171.376 1251.31 175.311C1243.44 179.246 1233.36 181.213 1221.06 181.213ZM1296.46 179V49.8872H1355.12C1369.14 49.8872 1381.49 52.5924 1392.19 58.0028C1402.89 63.2903 1411.25 70.7297 1417.28 80.3209C1423.3 89.9122 1426.31 101.286 1426.31 114.444C1426.31 127.478 1423.3 138.852 1417.28 148.566C1411.25 158.158 1402.89 165.658 1392.19 171.069C1381.49 176.356 1369.14 179 1355.12 179H1296.46ZM1326.34 154.469H1353.64C1362.25 154.469 1369.69 152.87 1375.96 149.673C1382.35 146.353 1387.27 141.68 1390.72 135.655C1394.28 129.63 1396.07 122.559 1396.07 114.444C1396.07 106.205 1394.28 99.1345 1390.72 93.2322C1387.27 87.2069 1382.35 82.5958 1375.96 79.3987C1369.69 76.0786 1362.25 74.4186 1353.64 74.4186H1326.34V154.469Z" fill="url(#paint0_linear_260_98)"/>
<defs>
<linearGradient id="paint0_linear_260_98" x1="1434" y1="113" x2="1172" y2="113" gradientUnits="userSpaceOnUse">
<stop stop-color="#0059F3"/>
<stop offset="1" stop-color="#12DBFF"/>
</linearGradient>
</defs>
</svg>
